<?xml version="1.0" standalone="no"?>
<!DOCTYPE svg PUBLIC "-//W3C//DTD SVG 20010904//EN"
 "http://www.w3.org/TR/2001/REC-SVG-20010904/DTD/svg10.dtd">
<svg version="1.0" xmlns="http://www.w3.org/2000/svg"
 width="512.000000pt" height="512.000000pt" viewBox="0 0 512.000000 512.000000"
 preserveAspectRatio="xMidYMid meet">
<metadata>
Created by potrace 1.11, written by Peter Selinger 2001-2013
</metadata>
<g transform="translate(0.000000,512.000000) scale(0.100000,-0.100000)"
fill="#000000" stroke="none">
<path d="M1105 5099 c-347 -72 -619 -311 -735 -646 -58 -168 -64 -367 -16
-568 31 -131 125 -297 236 -419 46 -50 170 -144 243 -184 67 -37 203 -86 265
-97 23 -4 42 -10 42 -13 0 -4 -147 -7 -328 -7 -321 0 -328 0 -372 -23 -25 -13
-56 -37 -69 -53 -56 -71 -53 2 -53 -1510 l0 -1396 21 -49 c28 -62 55 -91 108
-115 41 -19 94 -19 2115 -19 2016 0 2074 1 2115 19 48 22 98 85 114 143 8 33
12 470 9 1056 l0 62 -155 0 c-128 0 -155 -2 -155 -14 0 -25 -66 -162 -116
-238 -56 -88 -185 -219 -273 -278 -118 -79 -298 -148 -431 -164 -154 -19 -307
-3 -455 46 -350 117 -610 425 -668 792 -70 433 151 860 548 1058 519 259 1163
12 1375 -527 13 -33 25 -62 27 -65 3 -2 71 -5 154 -5 l149 0 0 40 c5 450 -1
1043 -11 1078 -12 44 -40 91 -74 119 -51 45 -26 44 -1687 43 -868 0 -1578 3
-1578 7 0 4 21 10 48 14 65 9 190 56 270 100 269 150 453 417 496 719 16 120
10 288 -14 350 -5 14 -8 25 -5 25 2 0 -7 30 -19 68 -105 307 -348 543 -652
630 -114 33 -124 34 -254 37 -92 2 -148 -2 -215 -16z"/>
</g>
</svg>
